<?xml version="1.0" encoding="UTF-8" standalone="no"?>
<svg
   version="1.1"
   id="svg1"
   width="497.72552"
   height="255.59894"
   viewBox="0 0 497.72552 255.59894"
   xmlns="http://www.w3.org/2000/svg"
   xmlns:svg="http://www.w3.org/2000/svg">
  <defs id="defs1" />
  <style>
    .logo { fill: #000000; }
    @media (prefers-color-scheme: dark) {
      .logo { fill: #ffffff; }
    }
  </style>
  <g
     id="g1"
     style="display:inline"
     transform="translate(-380.75372,-500.99817)">
    <path
       class="logo"
       d="m 400,756.39846 c -5.80568,-1.06218 -16.60553,-3.72185 -17.9072,-4.40999 -0.77397,-0.40916 1.7736,-0.51634 5.66125,-0.23818 15.26802,1.09242 31.89735,-3.37616 45.01381,-12.09596 13.21048,-8.78231 29.74997,-28.53198 42.4208,-50.65433 5.53293,-9.66009 19.14921,-37.73202 30.80067,-63.5 38.24911,-84.5905 57.40942,-112.5918 83.86485,-122.56198 8.07579,-3.0435 21.4552,-2.43141 28.73584,1.31462 7.10667,3.65652 12.15634,9.68016 15.50081,18.49057 1.04649,2.75679 1.04649,2.75679 -1.77217,0.0598 -8.7831,-8.40386 -20.24432,-7.44512 -28.83963,2.41246 -16.30854,18.70354 -22.31551,76.11544 -12.91673,123.45211 4.23986,21.35387 10.80702,35.58503 19.70305,42.69683 4.82046,3.85364 13.51158,4.8265 18.82431,2.10713 13.08401,-6.69716 21.85688,-19.51493 48.91729,-71.47158 27.84603,-53.46504 41.88633,-75.7585 57.47601,-91.26151 13.32046,-13.24639 24.64293,-18.91994 38.01704,-19.04984 6.70721,-0.0652 8.96959,0.36648 14,2.67096 8.56209,3.92239 14.39841,9.97511 17.5026,18.15153 1.13472,2.98886 1.13472,2.98886 -1.68394,0.35302 C 798.97481,528.80206 794.58007,527 789.01754,527 c -6.8955,0 -10.66824,1.80145 -16.18929,7.73024 -8.19225,8.79726 -13.46876,22.04463 -17.43377,43.76976 -2.58172,14.14576 -2.60196,54.21662 -0.0354,70 4.70592,28.93921 11.73468,47.95279 23.41249,63.33333 20.65125,27.19926 51.2841,30.89836 72.04769,8.70019 17.75366,-18.98027 19.8574,-47.28914 4.62491,-62.23478 -9.21961,-9.046 -19.84639,-10.41221 -30.63356,-3.93835 C 816.39339,659.41196 812,667.4842 812,677.89814 c 0,6.50001 1.83266,10.94182 5.94075,14.39855 7.69633,6.47604 17.3654,1.35674 14.89364,-7.7801 -1.48394,-5.48539 3.17363,-8.67192 5.78867,-7.83153 3.13535,1.0076 6.15095,4.96549 5.06733,13.28127 -1.2674,9.72614 -9.07122,17.4433 -20.19039,17.4433 -10.95158,0 -18.85281,-6.4056 -22.52963,-18.26497 -7.76914,-25.05894 8.94671,-51.74502 33.71308,-53.82134 27.46935,-2.30293 47.52814,23.97214 43.20969,56.6005 -2.24636,16.9726 -8.8967,30.9945 -19.93576,42.03356 C 845.76894,746.14582 831.73367,752 814.70059,752 770.31256,752 738.894,711.66382 732.89978,646.98144 c -2.12978,-22.98208 0.48988,-61.27229 5.47191,-79.98009 0.80539,-3.02426 1.22933,-5.72426 0.9421,-6 -1.12794,-1.08281 -14.03061,14.10654 -21.30031,25.07528 -7.26611,10.9633 -12.87589,20.88588 -36.95535,65.36668 -22.4594,41.48815 -36.00985,59.37882 -50.43228,66.58579 -8.53117,4.26308 -17.78456,4.23108 -26.43463,-0.0914 -18.0446,-9.017 -30.30064,-33.78078 -36.59311,-73.9377 -3.13475,-20.00521 -2.46883,-56.8207 1.39275,-76.99802 C 570.09589,561.22807 571,555.84499 571,555.03957 c 0,-2.46346 -9.76836,7.87639 -16.96775,17.96043 -8.84082,12.38316 -16.10371,25.61542 -38.69585,70.5 -19.82345,39.38393 -27.2101,52.88605 -36.38033,66.5 -19.64586,29.16587 -43.11322,45.11424 -68.32116,46.43094 -4.4742,0.2337 -9.25991,0.21909 -10.63491,-0.0325 z m 3.33869,-24.55491 c 9.20596,-9.28934 15.1565,-17.43976 23.59749,-32.32131 18.58747,-32.76988 34.14329,-77.22863 43.16221,-123.35816 1.21897,-6.23476 2.85265,-11.97226 3.63039,-12.75 2.26365,-2.26365 6.16035,-1.75153 7.40161,0.97276 2.84856,6.25189 -5.99936,46.74869 -16.5919,75.94094 -16.27383,44.84943 -39.154,80.60234 -60.75897,94.9429 -9.1048,6.04342 -9.18769,5.39897 -0.44083,-3.42713 z m -18.38965,2.29011 c 19.00939,-20.32675 36.28917,-74.41728 41.56374,-130.10613 1.28635,-13.58131 1.73629,-15.74687 3.58974,-17.27753 2.70035,-2.23007 3.44916,-2.19832 5.89748,0.25 2.31979,2.31979 2.43646,4.75225 0.98323,20.5 -4.39001,47.57183 -22.0773,98.63035 -41.27652,119.15438 C 390.65813,732.05132 382.25043,739 380.76886,739 c -0.20393,0 1.67715,-2.18985 4.18018,-4.86634 z m 30.11754,3.22182 c 17.33959,-12.53543 34.89161,-36.37031 52.17799,-70.85548 4.88756,-9.75034 11.77156,-25.70108 13.73147,-31.81682 2.22269,-6.93573 9.02396,-7.31048 9.02396,-0.49722 0,6.80858 -17.04069,41.5633 -29.57276,60.31404 -12.13659,18.15901 -26.07047,32.64627 -38.73924,40.27775 -6.2024,3.73624 -10.58273,5.4415 -6.62142,2.57773 z"
       id="path1" />
  </g>
</svg>
